<svg fill="#000000" xmlns="http://www.w3.org/2000/svg"  viewBox="0 0 64 64" width="64px" height="64px"><path d="M 13 6 C 9.1456661 6 6 9.1456661 6 13 L 6 51 C 6 54.854334 9.1456661 58 13 58 L 51 58 C 54.854334 58 58 54.854334 58 51 L 58 13 C 58 9.1456661 54.854334 6 51 6 L 13 6 z M 13 8 L 51 8 C 53.773666 8 56 10.226334 56 13 L 56 51 C 56 53.773666 53.773666 56 51 56 L 13 56 C 10.226334 56 8 53.773666 8 51 L 8 13 C 8 10.226334 10.226334 8 13 8 z M 18 13 A 1.0001 1.0001 0 0 0 17 14 L 17 44 A 1.0001 1.0001 0 0 0 18 45 L 32 45 A 1.0001 1.0001 0 0 0 33 44 L 33 41.962891 C 34.561182 43.817094 36.895322 45 39.5 45 C 44.182576 45 48 41.182576 48 36.5 C 48 33.258432 46.169638 30.432945 43.490234 29 C 46.169638 27.567055 48 24.741568 48 21.5 C 48 16.817424 44.182576 13 39.5 13 C 36.895322 13 34.561182 14.182906 33 16.037109 L 33 14 A 1.0001 1.0001 0 0 0 32 13 L 18 13 z M 19 15 L 31 15 L 31 43 L 19 43 L 19 15 z M 39.5 15 C 43.101696 15 46 17.898304 46 21.5 C 46 25.101696 43.101696 28 39.5 28 C 35.898304 28 33 25.101696 33 21.5 C 33 17.898304 35.898304 15 39.5 15 z M 33 26.962891 C 33.698955 27.793034 34.559701 28.479023 35.523438 28.994141 C 34.556225 29.509238 33.700634 30.204972 33 31.037109 L 33 26.962891 z M 39.5 30 C 43.101696 30 46 32.898304 46 36.5 C 46 40.101696 43.101696 43 39.5 43 C 35.898304 43 33 40.101696 33 36.5 C 33 32.898304 35.898304 30 39.5 30 z M 11.984375 48.986328 A 1.0001 1.0001 0 0 0 11 50 L 11 52 A 1.0001 1.0001 0 1 0 13 52 L 13 50 A 1.0001 1.0001 0 0 0 11.984375 48.986328 z M 16.984375 48.986328 A 1.0001 1.0001 0 0 0 16 50 L 16 52 A 1.0001 1.0001 0 1 0 18 52 L 18 50 A 1.0001 1.0001 0 0 0 16.984375 48.986328 z M 21.984375 48.986328 A 1.0001 1.0001 0 0 0 21 50 L 21 52 A 1.0001 1.0001 0 1 0 23 52 L 23 50 A 1.0001 1.0001 0 0 0 21.984375 48.986328 z M 26.984375 48.986328 A 1.0001 1.0001 0 0 0 26 50 L 26 52 A 1.0001 1.0001 0 1 0 28 52 L 28 50 A 1.0001 1.0001 0 0 0 26.984375 48.986328 z M 31.984375 48.986328 A 1.0001 1.0001 0 0 0 31 50 L 31 52 A 1.0001 1.0001 0 1 0 33 52 L 33 50 A 1.0001 1.0001 0 0 0 31.984375 48.986328 z M 36.984375 48.986328 A 1.0001 1.0001 0 0 0 36 50 L 36 52 A 1.0001 1.0001 0 1 0 38 52 L 38 50 A 1.0001 1.0001 0 0 0 36.984375 48.986328 z M 41.984375 48.986328 A 1.0001 1.0001 0 0 0 41 50 L 41 52 A 1.0001 1.0001 0 1 0 43 52 L 43 50 A 1.0001 1.0001 0 0 0 41.984375 48.986328 z M 46.984375 48.986328 A 1.0001 1.0001 0 0 0 46 50 L 46 52 A 1.0001 1.0001 0 1 0 48 52 L 48 50 A 1.0001 1.0001 0 0 0 46.984375 48.986328 z M 51.984375 48.986328 A 1.0001 1.0001 0 0 0 51 50 L 51 52 A 1.0001 1.0001 0 1 0 53 52 L 53 50 A 1.0001 1.0001 0 0 0 51.984375 48.986328 z"/></svg>