<svg xmlns="http://www.w3.org/2000/svg" fill-rule="evenodd" stroke-linejoin="round" stroke-miterlimit="2" clip-rule="evenodd" viewBox="0 0 64 64"><rect width="64" height="64" fill="none"/><path fill="#738b95" d="M362 325C362 324.448 361.552 324 361 324 357.586 324 346.414 324 343 324 342.448 324 342 324.448 342 325 342 327.873 342 336.127 342 339 342 339.552 342.448 340 343 340 346.414 340 357.586 340 361 340 361.552 340 362 339.552 362 339 362 336.127 362 327.873 362 325zM342 363C342 363.552 342.448 364 343 364 346.414 364 357.586 364 361 364 361.552 364 362 363.552 362 363 362 360.127 362 351.873 362 349 362 348.735 362.105 348.48 362.293 348.293 362.48 348.105 362.735 348 363 348 366.151 348 375.849 348 379 348 379.265 348 379.52 348.105 379.707 348.293 379.895 348.48 380 348.735 380 349 380 353.775 380 374.225 380 379 380 379.552 379.552 380 379 380 372.121 380 331.879 380 325 380 324.448 380 324 379.552 324 379 324 374.225 324 353.775 324 349 324 348.735 324.105 348.48 324.293 348.293 324.48 348.105 324.735 348 325 348 328.151 348 337.849 348 341 348 341.265 348 341.52 348.105 341.707 348.293 341.895 348.48 342 348.735 342 349 342 351.873 342 360.127 342 363z" transform="translate(-320 -320)"/><path fill="#617881" d="M344 324L344 337C344 337.552 344.448 338 345 338L362 338 362 339C362 339.552 361.552 340 361 340 357.586 340 346.414 340 343 340 342.448 340 342 339.552 342 339 342 336.127 342 327.873 342 325 342 324.448 342.448 324 343 324L344 324zM326 348L326 377C326 377.552 326.448 378 327 378L380 378 380 379C380 379.552 379.552 380 379 380 372.121 380 331.879 380 325 380 324.448 380 324 379.552 324 379 324 374.225 324 353.775 324 349 324 348.735 324.105 348.48 324.293 348.293 324.48 348.105 324.735 348 325 348L326 348zM364 348L364 361C364 361.552 363.552 362 363 362L362 362 362 349C362 348.735 362.105 348.48 362.293 348.293 362.48 348.105 362.735 348 363 348L364 348z" transform="translate(-320 -320)"/><path d="M362.5 325C362.5 324.172 361.828 323.5 361 323.5 357.586 323.5 346.414 323.5 343 323.5 342.172 323.5 341.5 324.172 341.5 325 341.5 327.873 341.5 336.127 341.5 339 341.5 339.828 342.172 340.5 343 340.5 346.414 340.5 357.586 340.5 361 340.5 361.828 340.5 362.5 339.828 362.5 339L362.5 325zM361.5 325C361.5 324.724 361.276 324.5 361 324.5 357.586 324.5 346.414 324.5 343 324.5 342.724 324.5 342.5 324.724 342.5 325 342.5 327.873 342.5 336.127 342.5 339 342.5 339.276 342.724 339.5 343 339.5 346.414 339.5 357.586 339.5 361 339.5 361.276 339.5 361.5 339.276 361.5 339L361.5 325zM342.5 363C342.5 363.276 342.724 363.5 343 363.5 346.414 363.5 357.586 363.5 361 363.5 361.276 363.5 361.5 363.276 361.5 363 361.5 360.127 361.5 351.873 361.5 349 361.5 348.602 361.658 348.221 361.939 347.939 362.221 347.658 362.602 347.5 363 347.5 366.151 347.5 375.849 347.5 379 347.5 379.398 347.5 379.779 347.658 380.061 347.939 380.342 348.221 380.5 348.602 380.5 349 380.5 353.775 380.5 374.225 380.5 379 380.5 379.828 379.828 380.5 379 380.5 372.121 380.5 331.879 380.5 325 380.5 324.172 380.5 323.5 379.828 323.5 379 323.5 374.225 323.5 353.775 323.5 349 323.5 348.602 323.658 348.221 323.939 347.939 324.221 347.658 324.602 347.5 325 347.5 328.151 347.5 337.849 347.5 341 347.5 341.398 347.5 341.779 347.658 342.061 347.939 342.342 348.221 342.5 348.602 342.5 349L342.5 363zM341.5 363C341.5 363.828 342.172 364.5 343 364.5 346.414 364.5 357.586 364.5 361 364.5 361.828 364.5 362.5 363.828 362.5 363 362.5 360.127 362.5 351.873 362.5 349 362.5 348.867 362.553 348.74 362.646 348.646 362.74 348.553 362.867 348.5 363 348.5 366.151 348.5 375.849 348.5 379 348.5 379.133 348.5 379.26 348.553 379.354 348.646 379.447 348.74 379.5 348.867 379.5 349 379.5 353.775 379.5 374.225 379.5 379 379.5 379.276 379.276 379.5 379 379.5 372.121 379.5 331.879 379.5 325 379.5 324.724 379.5 324.5 379.276 324.5 379 324.5 374.225 324.5 353.775 324.5 349 324.5 348.867 324.553 348.74 324.646 348.646 324.74 348.553 324.867 348.5 325 348.5 328.151 348.5 337.849 348.5 341 348.5 341.133 348.5 341.26 348.553 341.354 348.646 341.447 348.74 341.5 348.867 341.5 349L341.5 363z" transform="translate(-320 -320)"/></svg>